<?xml version="1.0" encoding="utf-8"?>
<!-- Generator: Adobe Illustrator 16.0.0, SVG Export Plug-In . SVG Version: 6.00 Build 0)  -->
<!DOCTYPE svg PUBLIC "-//W3C//DTD SVG 1.1//EN" "http://www.w3.org/Graphics/SVG/1.1/DTD/svg11.dtd">
<svg version="1.1" id="Layer_1" xmlns="http://www.w3.org/2000/svg" xmlns:xlink="http://www.w3.org/1999/xlink" x="0px" y="0px"
	 width="343.281px" height="363.958px" viewBox="0 0.864 343.281 363.958" enable-background="new 0 0.864 343.281 363.958"
	 xml:space="preserve">
<g id="Layer_1_1_" display="none">
	
		<image display="inline" overflow="visible" enable-background="new    " width="1920" height="1080" xlink:href="25CA4EED.jpeg"  transform="matrix(1 0 0 1 689.6558 -1360.8525)">
	</image>
	<rect x="816.656" y="-1245.853" display="inline" fill="#BF1F46" width="402" height="400"/>
	<rect x="1448.656" y="-1255.853" display="inline" fill="#F6861F" width="402" height="400"/>
	<rect x="2080.656" y="-1245.853" display="inline" fill="#F7B917" width="402" height="400"/>
	<rect x="2104.656" y="-737.853" display="inline" fill="#452B72" width="402" height="400"/>
	<rect x="1448.656" y="-737.853" display="inline" fill="#137A97" width="402" height="400"/>
	<rect x="772.656" y="-737.853" display="inline" fill="#8DAD3D" width="402" height="400"/>
	<rect x="-2507.957" y="-1278.411" display="inline" fill="#BF1F46" width="1002.547" height="997.557"/>
	<rect x="-1505.264" y="-1278.411" display="inline" fill="#F6861F" width="1002.545" height="997.557"/>
	<rect x="-502.572" y="-1278.411" display="inline" fill="#F7B917" width="1002.544" height="997.557"/>
	<rect x="-502.572" y="-280.854" display="inline" fill="#452B72" width="1002.546" height="997.559"/>
	<rect x="-1505.264" y="-280.854" display="inline" fill="#137A97" width="1002.545" height="997.559"/>
	<rect x="-2507.957" y="-280.854" display="inline" fill="#8DAD3D" width="1002.546" height="997.559"/>
	<rect x="-4759.402" y="-3682.263" display="inline" fill="#87459B" width="7933.501" height="2198.987"/>
	<rect x="-698.215" y="-3682.263" display="inline" fill="#8DAD3D" width="1777.486" height="2198.987"/>
	<rect x="-2475.7" y="-3673.572" display="inline" fill="#137A97" width="1777.486" height="2198.987"/>
</g>
<rect x="1357.564" y="303.368" fill="#137A97" width="648" height="507"/>
<rect x="1357.564" y="827.368" fill="#137A97" width="648" height="507"/>
<rect x="1357.564" y="1364.368" fill="#137A97" width="648" height="507"/>
<g>
	<rect x="153.476" y="-3096.73" opacity="0.9" fill="#FFFFFF" enable-background="new    " width="168.109" height="168.111"/>
	<rect x="120.358" y="-3128.113" opacity="0.5" fill="#FFFFFF" enable-background="new    " width="168.11" height="168.109"/>
</g>
<rect x="1338.867" y="-236.99" fill="#137A97" width="648" height="507"/>
<rect x="2004.042" y="-236.99" fill="#137A97" width="648" height="507"/>
<rect x="703.005" y="303.368" fill="#8DAD3D" width="648" height="507"/>
<g>
	<polygon fill="#FFFFFF" points="352.505,-2586.847 352.505,-2652.132 221.938,-2652.132 221.938,-2521.563 287.222,-2521.563 
		287.222,-2586.847 	"/>
	<polygon fill="#FFFFFF" points="352.505,-2586.847 352.505,-2521.563 287.222,-2521.563 287.222,-2456.279 417.791,-2456.279 
		417.791,-2586.847 	"/>
</g>
<g>
	<polygon fill="#FFFFFF" points="700.294,-2593.274 700.294,-2642.274 602.294,-2642.274 602.294,-2544.274 651.294,-2544.274 
		651.294,-2593.274 	"/>
	<polygon fill="#FFFFFF" points="700.294,-2593.274 700.294,-2544.274 651.294,-2544.274 651.294,-2495.274 749.294,-2495.274 
		749.294,-2593.274 	"/>
</g>
<rect x="684.306" y="-229.882" fill="#8DAD3D" width="648" height="507"/>
<g>
	<rect x="-164.36" y="-2214.462" opacity="0.9" fill="#FFFFFF" enable-background="new    " width="101.654" height="101.653"/>
	<rect x="-164.36" y="-2283.583" opacity="0.8" fill="#FFFFFF" enable-background="new    " width="65.807" height="65.813"/>
	<rect x="-164.36" y="-2214.462" opacity="0.8" fill="#FFFFFF" enable-background="new    " width="65.807" height="65.813"/>
	<rect x="-233.368" y="-2214.462" opacity="0.8" fill="#FFFFFF" enable-background="new    " width="65.807" height="65.813"/>
	<rect x="-233.368" y="-2283.583" opacity="0.8" fill="#FFFFFF" enable-background="new    " width="65.807" height="65.813"/>
</g>
<rect x="2004.042" y="287.625" fill="#137A97" width="648" height="507"/>
<g>
	<rect x="1693.449" y="-3114.956" opacity="0.2" fill="#FFFFFF" enable-background="new    " width="169.266" height="37.125"/>
	<rect x="1693.449" y="-3077.831" opacity="0.5" fill="#FFFFFF" enable-background="new    " width="169.266" height="32.299"/>
	<rect x="1693.449" y="-3048.556" fill="#FFFFFF" width="169.266" height="169.264"/>
</g>
<g>
	<g>
		<rect x="2479.275" y="-3041.841" opacity="0.2" fill="#FFFFFF" enable-background="new    " width="73.15" height="70.963"/>
		<rect x="2479.275" y="-2970.878" opacity="0.5" fill="#FFFFFF" enable-background="new    " width="73.15" height="13.958"/>
		<rect x="2479.275" y="-2958.227" fill="#FFFFFF" width="73.15" height="73.15"/>
	</g>
	<g>
		<rect x="2253.666" y="-3028.036" opacity="0.2" fill="#FFFFFF" enable-background="new    " width="73.15" height="57.597"/>
		<rect x="2253.666" y="-2970.439" opacity="0.5" fill="#FFFFFF" enable-background="new    " width="73.15" height="13.958"/>
		<rect x="2253.666" y="-2957.788" fill="#FFFFFF" width="73.15" height="73.15"/>
	</g>
	<g>
		<rect x="2354.56" y="-3088.706" opacity="0.2" fill="#FFFFFF" enable-background="new    " width="73.15" height="42.355"/>
		<rect x="2354.56" y="-3046.351" opacity="0.5" fill="#FFFFFF" enable-background="new    " width="73.15" height="13.958"/>
		<rect x="2354.56" y="-3033.699" fill="#FFFFFF" width="73.15" height="73.15"/>
	</g>
</g>
<g>
	<g>
		<rect x="2122.937" y="-2215.145" opacity="0.2" fill="#FFFFFF" enable-background="new    " width="55.445" height="12.16"/>
		<rect x="2122.937" y="-2202.984" opacity="0.5" fill="#FFFFFF" enable-background="new    " width="55.445" height="10.581"/>
		<rect x="2122.937" y="-2193.395" fill="#FFFFFF" width="55.445" height="55.446"/>
	</g>
	<g>
		<rect x="2208.205" y="-2150.109" opacity="0.2" fill="#FFFFFF" enable-background="new    " width="55.447" height="12.16"/>
		<rect x="2208.205" y="-2137.949" opacity="0.5" fill="#FFFFFF" enable-background="new    " width="55.447" height="10.58"/>
		<rect x="2208.205" y="-2128.359" fill="#FFFFFF" width="55.447" height="55.445"/>
	</g>
	<g>
		<rect x="2033.634" y="-2156.19" opacity="0.2" fill="#FFFFFF" enable-background="new    " width="55.445" height="12.161"/>
		<rect x="2033.634" y="-2144.029" opacity="0.5" fill="#FFFFFF" enable-background="new    " width="55.445" height="10.58"/>
		<rect x="2033.634" y="-2134.44" fill="#FFFFFF" width="55.445" height="55.445"/>
	</g>
</g>
<g>
	<g>
		<rect x="1554.07" y="-2574.078" opacity="0.2" fill="#FFFFFF" enable-background="new    " width="55.445" height="55.802"/>
		<rect x="1554.07" y="-2518.276" opacity="0.5" fill="#FFFFFF" enable-background="new    " width="55.445" height="10.581"/>
		<rect x="1554.07" y="-2508.687" fill="#FFFFFF" width="55.445" height="55.446"/>
	</g>
	<g>
		<rect x="1628.443" y="-2520.909" opacity="0.2" fill="#FFFFFF" enable-background="new    " width="55.443" height="39.299"/>
		<rect x="1628.443" y="-2481.61" opacity="0.5" fill="#FFFFFF" enable-background="new    " width="55.443" height="10.581"/>
		<rect x="1628.443" y="-2472.02" fill="#FFFFFF" width="55.443" height="55.445"/>
	</g>
	<g>
		<rect x="1482.775" y="-2503.01" opacity="0.2" fill="#FFFFFF" enable-background="new    " width="55.445" height="42.517"/>
		<rect x="1482.775" y="-2460.493" opacity="0.5" fill="#FFFFFF" enable-background="new    " width="55.445" height="10.581"/>
		<rect x="1482.775" y="-2450.903" fill="#FFFFFF" width="55.445" height="55.445"/>
	</g>
</g>
<g>
	<g>
		<rect x="1529.552" y="-2216.687" opacity="0.2" fill="#FFFFFF" enable-background="new    " width="34.703" height="7.611"/>
		<rect x="1529.552" y="-2209.075" opacity="0.5" fill="#FFFFFF" enable-background="new    " width="34.703" height="6.623"/>
		<rect x="1529.552" y="-2203.073" fill="#FFFFFF" width="34.703" height="34.704"/>
	</g>
	<g>
		<rect x="1571.236" y="-2120.42" opacity="0.2" fill="#FFFFFF" enable-background="new    " width="34.703" height="7.611"/>
		<rect x="1571.236" y="-2112.809" opacity="0.5" fill="#FFFFFF" enable-background="new    " width="34.703" height="6.622"/>
		<rect x="1571.236" y="-2106.807" fill="#FFFFFF" width="34.703" height="34.703"/>
	</g>
	<g>
		<rect x="1482.775" y="-2148.096" opacity="0.2" fill="#FFFFFF" enable-background="new    " width="55.445" height="12.16"/>
		<rect x="1482.775" y="-2135.936" opacity="0.5" fill="#FFFFFF" enable-background="new    " width="55.445" height="10.58"/>
		<rect x="1482.775" y="-2126.346" fill="#FFFFFF" width="55.445" height="55.446"/>
	</g>
	<g>
		<rect x="1598.244" y="-2212.536" opacity="0.2" fill="#FFFFFF" enable-background="new    " width="55.447" height="12.161"/>
		<rect x="1598.244" y="-2200.375" opacity="0.5" fill="#FFFFFF" enable-background="new    " width="55.447" height="10.581"/>
		<rect x="1598.244" y="-2190.785" fill="#FFFFFF" width="55.447" height="55.445"/>
	</g>
</g>
<g>
	<g>
		<rect x="2187.041" y="-2549.381" opacity="0.2" fill="#FFFFFF" enable-background="new    " width="45.391" height="48.319"/>
		<rect x="2187.041" y="-2501.062" opacity="0.5" fill="#FFFFFF" enable-background="new    " width="45.391" height="8.661"/>
		<rect x="2187.041" y="-2493.211" fill="#FFFFFF" width="45.391" height="45.391"/>
	</g>
	<g>
		<rect x="2040.562" y="-2536.714" opacity="0.2" fill="#FFFFFF" enable-background="new    " width="45.391" height="55.396"/>
		<rect x="2040.562" y="-2481.318" opacity="0.5" fill="#FFFFFF" enable-background="new    " width="45.391" height="8.662"/>
		<rect x="2040.562" y="-2473.467" fill="#FFFFFF" width="45.391" height="45.391"/>
	</g>
	<g>
		<rect x="2103.169" y="-2562.071" opacity="0.2" fill="#FFFFFF" enable-background="new    " width="45.391" height="35.916"/>
		<rect x="2103.169" y="-2526.155" opacity="0.5" fill="#FFFFFF" enable-background="new    " width="45.391" height="8.662"/>
		<rect x="2103.169" y="-2518.305" fill="#FFFFFF" width="45.391" height="45.392"/>
	</g>
	<g>
		<rect x="2125.865" y="-2493.826" opacity="0.2" fill="#FFFFFF" enable-background="new    " width="45.393" height="56.171"/>
		<rect x="2125.865" y="-2437.655" opacity="0.5" fill="#FFFFFF" enable-background="new    " width="45.393" height="8.662"/>
		<rect x="2125.865" y="-2429.805" fill="#FFFFFF" width="45.393" height="45.392"/>
	</g>
</g>
<text transform="matrix(1 0 0 1 883.1616 -855.8525)" fill="#FFFFFF" font-family="'MyriadPro-Semibold'" font-size="42.5797">block party</text>
<text transform="matrix(1 0 0 1 873.1616 -324.8525)" fill="#FFFFFF" font-family="'MyriadPro-Semibold'" font-size="42.5797">color seeker</text>
<path fill="none" stroke="#000000" stroke-miterlimit="10" d="M-2180.478-3062.542"/>
<g>
	<polygon opacity="0.5" fill="#FFFFFF" enable-background="new    " points="-1618.6,-2608.201 -1579.481,-2608.201 
		-1538.304,-2605.89 -1511.352,-2602.221 -1507.273,-2592.663 -1530.421,-2359.263 -1587.594,-2355.59 -1653.498,-2360.223 
		-1663.896,-2536.573 -1667.915,-2603.463 	"/>
	<g>
		<path opacity="0.8" fill="#EFEFEF" enable-background="new    " d="M-1651.484-2361.265c63.331,7.514,120.091-0.469,120.091-0.469
			l23.446-215.9c-11.544,5.245-132.284,10.666-158.092,1.435"/>
		<ellipse fill="#FFFFFF" cx="-1587.594" cy="-2577.634" rx="79.646" ry="8.255"/>
		<path fill="none" stroke="#FFFFFF" stroke-width="5" stroke-miterlimit="10" d="M-1506.063-2600.794
			c0,2.938-37.239,5.319-81.531,5.319s-81.525-2.381-81.525-5.319c0-2.936,37.233-5.318,81.525-5.318
			S-1506.063-2603.73-1506.063-2600.794z"/>
		<path fill="none" stroke="#FFFFFF" stroke-width="6" stroke-miterlimit="10" d="M-1646.319-2364.421"/>
		<path fill="none" stroke="#FFFFFF" stroke-width="6" stroke-miterlimit="10" d="M-1529.211-2362.937
			c0,1.906-27.552,7.347-61.538,7.347c-33.987,0-61.538-5.44-61.538-7.347"/>
		
			<line fill="none" stroke="#FFFFFF" stroke-width="6" stroke-miterlimit="10" x1="-1652.287" y1="-2362.937" x2="-1667.792" y2="-2600.794"/>
		
			<line fill="none" stroke="#FFFFFF" stroke-width="6" stroke-miterlimit="10" x1="-1529.211" y1="-2362.937" x2="-1507.396" y2="-2600.794"/>
		<path fill="none" stroke="#FFFFFF" stroke-width="10" stroke-miterlimit="10" d="M-1712.355-2677.359
			c0,0,49.627,16.739,59.156,20.213c9.528,3.473,6.776,3.896,31.073,79.513"/>
	</g>
	<path fill="none" stroke="#FFFFFF" stroke-width="5" stroke-miterlimit="10" d="M-1653.352-2572.288"/>
	<path opacity="0.4" fill="#FFFFFF" enable-background="new    " d="M-1658.651-2444.746c9.539,10.359,128.307,12.625,135.804-1.501
		l-5.968,83.479l-58.778,7.179l-65.827-5.453L-1658.651-2444.746z"/>
	<path opacity="0.4" fill="#FFFFFF" enable-background="new    " d="M-1662.594-2519.265c10.093,10.958,135.756,13.355,143.689-1.59
		l-9.911,160.825l-58.779,4.44l-65.826-3.673L-1662.594-2519.265z"/>
</g>
<g>
	<polygon opacity="0.5" fill="#FFFFFF" enable-background="new    " points="-1152.439,-2607.829 -1113.509,-2607.829 
		-1072.53,-2605.528 -1045.708,-2601.877 -1041.649,-2592.365 -1064.686,-2360.089 -1187.169,-2361.044 -1197.517,-2536.545 
		-1201.517,-2603.113 	"/>
	<g>
		<path opacity="0.8" fill="#EFEFEF" enable-background="new    " d="M-1185.787-2364.251c63.026,7.478,119.513-0.467,119.513-0.467
			l22.137-212.468c-11.489,5.219-130.451,10.377-156.134,1.19"/>
		<ellipse fill="#FFFFFF" cx="-1122.787" cy="-2577.187" rx="79.263" ry="8.216"/>
		<path fill="none" stroke="#FFFFFF" stroke-width="5" stroke-miterlimit="10" d="M-1041.649-2600.236
			c0,2.923-37.06,5.293-81.138,5.293c-44.079,0-81.132-2.37-81.132-5.293c0-2.922,37.054-5.292,81.132-5.292
			S-1041.649-2603.158-1041.649-2600.236z"/>
		<path fill="none" stroke="#FFFFFF" stroke-width="6" stroke-miterlimit="10" d="M-1181.229-2365"/>
		<path fill="none" stroke="#FFFFFF" stroke-width="6" stroke-miterlimit="10" d="M-1064.686-2363.523
			c0,1.896-27.419,3.434-61.241,3.434c-33.823,0-61.242-1.537-61.242-3.434"/>
		
			<line fill="none" stroke="#FFFFFF" stroke-width="6" stroke-miterlimit="10" x1="-1187.169" y1="-2363.523" x2="-1202.599" y2="-2600.236"/>
		
			<line fill="none" stroke="#FFFFFF" stroke-width="6" stroke-miterlimit="10" x1="-1064.686" y1="-2363.523" x2="-1042.976" y2="-2600.236"/>
		<path fill="none" stroke="#FFFFFF" stroke-width="10" stroke-miterlimit="10" d="M-1246.948-2676.432
			c0,0,49.388,16.659,58.871,20.116c9.482,3.457,6.743,3.877,30.923,79.13"/>
	</g>
	<path fill="none" stroke="#FFFFFF" stroke-width="5" stroke-miterlimit="10" d="M-1197.517-2569.864"/>
	<path opacity="0.4" fill="#FFFFFF" enable-background="new    " d="M-1192.374-2443.389c9.493,10.309,127.688,12.563,135.15-1.495
		l-5.94,83.077l-124.005,1.717L-1192.374-2443.389z"/>
	<path opacity="0.4" fill="#FFFFFF" enable-background="new    " d="M-1197.382-2520.204c10.044,10.905,139.171,14.875,147.066,0
		l-12.848,159.352l-124.005,0.763L-1197.382-2520.204z"/>
</g>
<text transform="matrix(1 0 0 1 1807.2378 -3403.5527)" fill="#FFFFFF" font-family="'HelveticaCE-Bold'" font-size="124">Block Party</text>
<text transform="matrix(1 0 0 1 -86.5801 -3387.4258)" fill="#FFFFFF" font-family="'HelveticaCE-Bold'" font-size="124">Color Seeker</text>
<text transform="matrix(1 0 0 1 -2120.6611 -3403.5527)" fill="#FFFFFF" font-family="'HelveticaCE-Bold'" font-size="124">Groovy Smoothie</text>
<text transform="matrix(1 0 0 1 -4166.8672 -3387.4258)" fill="#FFFFFF" font-family="'HelveticaCE-Bold'" font-size="124">Color Slide</text>
<g>
	<rect x="2616.107" y="-2254.475" opacity="0.2" fill="#FFFFFF" enable-background="new    " width="12.545" height="56.399"/>
	<rect x="2616.107" y="-2198.075" opacity="0.5" fill="#FFFFFF" enable-background="new    " width="12.545" height="45.524"/>
</g>
<g>
	<rect x="2656.283" y="-2215.399" opacity="0.2" fill="#FFFFFF" enable-background="new    " width="12.545" height="25.19"/>
	<rect x="2656.283" y="-2190.208" opacity="0.5" fill="#FFFFFF" enable-background="new    " width="12.545" height="20.333"/>
</g>
<g>
	<g>
		<rect x="1504.839" y="-1960.955" opacity="0.2" fill="#FFFFFF" enable-background="new    " width="91.24" height="20.012"/>
		<rect x="1504.839" y="-1940.943" opacity="0.5" fill="#FFFFFF" enable-background="new    " width="91.24" height="17.411"/>
		<rect x="1504.839" y="-1925.163" fill="#FFFFFF" width="91.24" height="91.241"/>
	</g>
	<g opacity="0.8">
		<rect x="1475.869" y="-1881.522" opacity="0.2" fill="#FFFFFF" enable-background="new    " width="57.941" height="12.708"/>
		<rect x="1475.869" y="-1868.814" opacity="0.5" fill="#FFFFFF" enable-background="new    " width="57.941" height="11.057"/>
		<rect x="1475.869" y="-1858.792" fill="#FFFFFF" width="57.941" height="57.942"/>
	</g>
</g>
<g>
	<g>
		<rect x="1610.736" y="-1875.638" opacity="0.2" fill="#FFFFFF" enable-background="new    " width="66.588" height="14.604"/>
		<rect x="1610.736" y="-1861.033" opacity="0.5" fill="#FFFFFF" enable-background="new    " width="66.588" height="12.706"/>
		<rect x="1610.736" y="-1849.517" fill="#FFFFFF" width="66.588" height="66.586"/>
	</g>
</g>
<rect x="2609.011" y="-2132.746" fill="none" stroke="#FFFFFF" stroke-width="7" stroke-miterlimit="10" width="68.115" height="68.114"/>
<rect x="2587.339" y="-2462.839" fill="#FFFFFF" width="111.457" height="111.458"/>
<g>
	<g>
		<rect x="2638.835" y="-1900.999" opacity="0.2" fill="#FFFFFF" enable-background="new    " width="12.545" height="56.4"/>
		<rect x="2638.835" y="-1844.599" opacity="0.5" fill="#FFFFFF" enable-background="new    " width="12.545" height="45.523"/>
	</g>
	<g>
		<rect x="2669.794" y="-1853.673" opacity="0.2" fill="#FFFFFF" enable-background="new    " width="12.545" height="40.069"/>
		<rect x="2669.794" y="-1813.604" opacity="0.5" fill="#FFFFFF" enable-background="new    " width="12.545" height="32.344"/>
	</g>
	<g>
		<rect x="2603.796" y="-1866.499" opacity="0.2" fill="#FFFFFF" enable-background="new    " width="12.545" height="55.051"/>
		<rect x="2603.796" y="-1811.448" opacity="0.5" fill="#FFFFFF" enable-background="new    " width="12.545" height="30.188"/>
	</g>
	<rect x="2587.339" y="-1771.349" fill="#FFFFFF" width="111.457" height="111.458"/>
</g>
<line fill="none" stroke="#FFFFFF" stroke-width="7" stroke-miterlimit="10" x1="2644.207" y1="-2497.893" x2="2644.207" y2="-2604.929"/>
<line fill="none" stroke="#FFFFFF" stroke-width="7" stroke-miterlimit="10" x1="2678.705" y1="-2488.604" x2="2678.705" y2="-2556.718"/>
<line fill="none" stroke="#FFFFFF" stroke-width="7" stroke-miterlimit="10" x1="2607.431" y1="-2483.297" x2="2607.431" y2="-2551.411"/>
<g opacity="0.8">
	<rect x="1903.689" y="-1854.68" opacity="0.2" fill="#FFFFFF" enable-background="new    " width="63.742" height="13.981"/>
	<rect x="1903.689" y="-1840.699" opacity="0.5" fill="#FFFFFF" enable-background="new    " width="63.742" height="12.162"/>
	<rect x="1903.689" y="-1829.676" fill="#FFFFFF" width="63.742" height="63.743"/>
</g>
<g>
	<polygon opacity="0.5" fill="#FFFFFF" enable-background="new    " points="-79.71,-2621.446 -79.71,-2484.719 -214.703,-2484.719 
		-214.703,-2453.334 -46.592,-2453.334 -46.592,-2621.446 	"/>
	<polygon fill="#FFFFFF" points="-79.71,-2621.446 -79.71,-2652.829 -247.82,-2652.829 -247.82,-2484.719 -214.703,-2484.719 
		-214.703,-2621.446 	"/>
</g>
<g>
	<g>
		<rect x="251.143" y="-2318.64" opacity="0.5" fill="#FFFFFF" enable-background="new    " width="168.11" height="168.108"/>
	</g>
	<rect x="284.259" y="-2287.257" opacity="0.5" fill="#FFFFFF" enable-background="new    " width="134.994" height="136.727"/>
	
		<line fill="none" stroke="#FFFFFF" stroke-width="3" stroke-miterlimit="10" x1="284.205" y1="-2116.9" x2="453.871" y2="-2116.9"/>
	
		<line fill="none" stroke="#FFFFFF" stroke-width="3" stroke-miterlimit="10" x1="452.371" y1="-2116.9" x2="452.371" y2="-2287.257"/>
</g>
<g>
	<rect x="-2214.59" y="55.457" opacity="0.9" fill="#FFFFFF" enable-background="new    " width="297.09" height="297.095"/>
	<rect x="-2273.116" opacity="0.5" fill="#FFFFFF" enable-background="new    " width="297.091" height="297.087"/>
</g>
<g>
	<polygon opacity="0.6" fill="#FFFFFF" enable-background="new    " points="-1889.964,-2359.162 -2037.484,-2359.162 
		-2052.103,-2622.868 -1875.369,-2622.868 	"/>
	<g>
		<polygon fill="none" points="-1875.369,-2622.868 -2052.103,-2622.868 -2049.487,-2575.693 -1877.98,-2575.693 		"/>
		<polygon opacity="0.5" fill="#FFFFFF" enable-background="new    " points="-1877.98,-2575.693 -2049.487,-2575.693 
			-2045.485,-2503.488 -1881.977,-2503.488 		"/>
		<polygon opacity="0.75" fill="#FFFFFF" enable-background="new    " points="-1881.977,-2503.487 -2045.485,-2503.487 
			-2041.486,-2431.367 -1885.968,-2431.367 		"/>
		<rect x="-2045.485" y="-2503.488" opacity="0.5" fill="#FFFFFF" enable-background="new    " width="163.508" height="0.001"/>
		<rect x="-2045.485" y="-2503.488" opacity="0.75" fill="#FFFFFF" enable-background="new    " width="163.508" height="0.001"/>
		<polygon fill="#FFFFFF" points="-1885.968,-2431.367 -2041.486,-2431.367 -2037.484,-2359.162 -1889.964,-2359.162 		"/>
	</g>
	<path fill="none" stroke="#FFFFFF" stroke-width="10" stroke-miterlimit="10" d="M-2094.787-2677.359
		c0,0,54.234,18.292,64.647,22.089c10.413,3.796,7.404,4.258,33.957,86.894"/>
</g>
<circle fill="#FFFFFF" cx="-1407.305" cy="-2556.907" r="29.973"/>
<path fill="#FFFFFF" d="M-1389.912-2407.994c-2.501-2.163-3.974-4.866-5.912-7.479c-7.61-10.262-20.878-11.311-31.575,7.525
	c-14.29,25.162-10.097,35.078-4.119,41.244c1.185,1.222,2.275,2.378,3.753,2.769c0.601,1.406,2.02,2.221,3.307,3.333
	c6.849,5.92,20.204,6.846,41.791-10.696c16.355-13.29,12.809-27.587-1.205-32.714
	C-1387.446-2405.319-1386.91-2405.399-1389.912-2407.994z"/>
<path opacity="0.5" fill="none" stroke="#FFFFFF" stroke-width="3" stroke-miterlimit="10" enable-background="new    " d="
	M-1397.551-2398.438c9.588-11.092,15.248-21.884,12.653-24.126"/>
<ellipse transform="matrix(0.1605 0.987 -0.987 0.1605 -3740.7222 -766.4438)" opacity="0.5" fill="#FFFFFF" enable-background="new    " cx="-1419.773" cy="-2582.371" rx="3.898" ry="16.128"/>
<ellipse transform="matrix(0.1605 0.987 -0.987 0.1605 -3731.6321 -779.9724)" opacity="0.5" fill="#FFFFFF" enable-background="new    " cx="-1407.308" cy="-2583.631" rx="3.898" ry="16.129"/>
<g>
	<polygon opacity="0.5" fill="#FFFFFF" enable-background="new    " points="-1600.301,-3165.959 -1557.301,-3165.959 
		-1518.801,-3165.27 -1492.219,-3164.497 -1488.954,-3158.254 -1511.507,-2930.854 -1631.419,-2931.788 -1641.55,-3103.605 
		-1645.466,-3164.715 	"/>
	<g>
		<path opacity="0.8" fill="#EFEFEF" enable-background="new    " d="M-1630.066-2934.929c61.703,7.32,117.004-0.456,117.004-0.456
			l21.672-208.01l-152.857,1.166"/>
		<path fill="none" stroke="#FFFFFF" stroke-width="6" stroke-miterlimit="10" d="M-1625.604-2935.662"/>
		<path fill="none" stroke="#FFFFFF" stroke-width="6" stroke-miterlimit="10" d="M-1511.507-2934.216
			c0,1.856-26.844,3.362-59.957,3.362c-33.113,0-59.956-1.505-59.956-3.362"/>
		<polyline fill="none" stroke="#FFFFFF" stroke-width="6" stroke-miterlimit="10" points="-1631.419,-2934.216 
			-1646.525,-3165.959 -1490.253,-3165.959 -1511.507,-2934.216 		"/>
		<path fill="none" stroke="#FFFFFF" stroke-width="10" stroke-linejoin="round" stroke-miterlimit="10" d="M-1689.943-3240.557
			c0,0,48.352,16.31,57.636,19.693c9.283,3.385,10.833,14.756,34.506,88.428"/>
	</g>
	<path fill="none" stroke="#FFFFFF" stroke-width="5" stroke-miterlimit="10" d="M-1641.55-3136.225"/>
	<polygon opacity="0.4" fill="#FFFFFF" enable-background="new    " points="-1636.516,-3012.405 -1504.202,-3013.868 
		-1510.017,-2932.535 -1631.419,-2930.854 	"/>
	<polygon opacity="0.4" fill="#FFFFFF" enable-background="new    " points="-1637.817,-3086.742 -1497.821,-3088.292 
		-1507.477,-2931.602 -1628.879,-2930.854 	"/>
</g>
<g>
	<path fill="#FFFFFF" d="M-1734.615-3001.377c-3.552-3.07-5.643-6.909-8.395-10.62c-10.807-14.57-29.646-16.059-44.835,10.687
		c-20.289,35.728-14.337,49.808-5.848,58.563c1.682,1.735,3.23,3.377,5.328,3.932c0.854,1.996,2.867,3.153,4.695,4.733
		c9.724,8.405,28.688,9.72,59.339-15.188c23.224-18.87,18.188-39.171-1.711-46.451
		C-1731.114-2997.578-1730.352-2997.692-1734.615-3001.377z"/>
	<path opacity="0.5" fill="none" stroke="#FFFFFF" stroke-width="3" stroke-miterlimit="10" enable-background="new    " d="
		M-1745.463-2987.807c13.615-15.75,21.651-31.073,17.967-34.258"/>
</g>
<g>
	<circle fill="#FFFFFF" cx="-1403.829" cy="-3191.082" r="42.559"/>
	
		<ellipse transform="matrix(0.1605 0.987 -0.987 0.1605 -4378.6719 -1306.144)" opacity="0.5" fill="#FFFFFF" enable-background="new    " cx="-1421.469" cy="-3227.243" rx="5.536" ry="22.9"/>
	
		<ellipse transform="matrix(0.1605 0.987 -0.987 0.1605 -4365.6875 -1325.1895)" opacity="0.5" fill="#FFFFFF" enable-background="new    " cx="-1403.821" cy="-3228.998" rx="5.535" ry="22.901"/>
</g>
<g>
	<rect x="-4477.345" y="-3148.523" opacity="0.7" fill="#FFFFFF" enable-background="new    " width="50.362" height="304.671"/>
	<rect x="-4488.163" y="-3100.087" fill="#FFFFFF" width="72" height="36.219"/>
</g>
<g>
	<rect x="-4125.154" y="-3148.523" opacity="0.7" fill="#FFFFFF" enable-background="new    " width="50.362" height="304.671"/>
	<rect x="-4135.973" y="-3073.045" fill="#FFFFFF" width="72" height="36.219"/>
</g>
<g>
	<rect x="-4301.249" y="-3148.523" opacity="0.7" fill="#FFFFFF" enable-background="new    " width="50.362" height="304.671"/>
	<rect x="-4312.068" y="-2953.962" fill="#FFFFFF" width="72" height="36.219"/>
</g>
<g>
	<rect x="-4549.568" y="-2340.006" opacity="0.5" fill="#FFFFFF" enable-background="new    " width="619" height="422.247"/>
	<rect x="-4487.218" y="-2297.475" fill="#FFFFFF" width="494.299" height="337.183"/>
</g>
<path fill="#FFFFFF" d="M-3259.568-2328.006v422.247h619v-422.247H-3259.568z M-2702.918-1948.292h-494.299v-337.183h494.299
	V-1948.292z"/>
<rect x="-3197.218" y="-2285.475" opacity="0.5" fill="#FFFFFF" enable-background="new    " width="494.299" height="337.183"/>
<rect x="-3770.266" y="-3108.916" opacity="0.5" fill="#FFFFFF" enable-background="new    " width="208.515" height="208.515"/>
<path fill="#FFFFFF" d="M-3818.344-3157.271v304.671h304.671v-304.671H-3818.344z M-3561.751-2900.678h-208.515v-208.515h208.515
	V-2900.678z"/>
<g>
	<rect x="-2244.026" y="-1059.265" opacity="0.7" fill="#FFFFFF" enable-background="new    " width="50.573" height="305.944"/>
	<rect x="-2254.89" y="-1010.625" fill="#FFFFFF" width="72.301" height="36.369"/>
</g>
<g>
	<rect x="-1952.742" y="-1059.265" opacity="0.7" fill="#FFFFFF" enable-background="new    " width="50.572" height="305.944"/>
	<rect x="-1963.606" y="-983.472" fill="#FFFFFF" width="72.302" height="36.37"/>
</g>
<g>
	<rect x="-2098.383" y="-1059.265" opacity="0.7" fill="#FFFFFF" enable-background="new    " width="50.572" height="305.944"/>
	<rect x="-2109.247" y="-863.889" fill="#FFFFFF" width="72.3" height="36.369"/>
</g>
<g>
	<rect x="-1145.615" y="-1059.265" opacity="0.5" fill="#FFFFFF" enable-background="new    " width="436.085" height="297.474"/>
	<rect x="-1094.907" y="-1024.676" fill="#FFFFFF" width="334.67" height="228.294"/>
</g>
<g>
	<text transform="matrix(1 0 0 1 90.4819 279.7217)" fill="#FFFFFF" font-family="'Helvetica'" font-size="324.6325">c</text>
	<path fill="none" stroke="#FFFFFF" stroke-width="14" stroke-miterlimit="10" d="M336.281,193.178
		c0,90.93-73.71,164.645-164.64,164.645C80.711,357.822,7,284.107,7,193.178C7,102.254,80.711,28.544,171.641,28.544
		C262.571,28.544,336.281,102.254,336.281,193.178z"/>
</g>
<path opacity="0.4" fill="#FFFFFF" enable-background="new    " d="M336.281,187.262c0,90.928-73.71,164.645-164.64,164.645
	C80.711,351.906,7,278.189,7,187.262C7,96.335,80.711,22.626,171.641,22.626C262.571,22.626,336.281,96.335,336.281,187.262z"/>
<text transform="matrix(1 0 0 1 -2295.1953 -478.9512)" fill="#FFFFFF" font-family="'Helvetica-Bold'" font-size="84.4777">color match</text>
<text transform="matrix(1 0 0 1 -1186.8555 -478.9512)" fill="#FFFFFF" font-family="'Helvetica-Bold'" font-size="84.4777">painting remix</text>
<text transform="matrix(1 0 0 1 -2321.7559 601.0596)" fill="#FFFFFF" font-family="'Helvetica-Bold'" font-size="84.4777">color seeker</text>
<text transform="matrix(1 0 0 1 -1243.0605 601.0596)" fill="#FFFFFF" font-family="'Helvetica-Bold'" font-size="84.4777">groovy smoothie</text>
<text transform="matrix(1 0 0 1 50.2759 601.0596)" fill="#FFFFFF" font-family="'Helvetica-Bold'" font-size="84.4777">credits</text>
<text transform="matrix(1 0 0 1 -69.061 -478.9512)" fill="#FFFFFF" font-family="'Helvetica-Bold'" font-size="84.4777">block party</text>
<g>
	<polygon opacity="0.5" fill="#FFFFFF" enable-background="new    " points="-2130.052,-3278.223 -2090.934,-3278.223 
		-2049.756,-3275.911 -2022.804,-3272.243 -2018.726,-3262.685 -2041.874,-3029.284 -2099.046,-3025.611 -2164.95,-3030.244 
		-2175.348,-3206.595 -2179.367,-3273.484 	"/>
	<g>
		<path opacity="0.8" fill="#EFEFEF" enable-background="new    " d="M-2162.936-3031.286c63.331,7.514,120.091-0.469,120.091-0.469
			l23.446-215.9c-11.544,5.244-132.284,10.666-158.092,1.435"/>
		<ellipse fill="#FFFFFF" cx="-2099.046" cy="-3247.655" rx="79.647" ry="8.255"/>
		<path fill="none" stroke="#FFFFFF" stroke-width="5" stroke-miterlimit="10" d="M-2017.515-3270.815
			c0,2.938-37.239,5.318-81.531,5.318s-81.525-2.381-81.525-5.318s37.233-5.318,81.525-5.318S-2017.515-3273.752-2017.515-3270.815z
			"/>
		<path fill="none" stroke="#FFFFFF" stroke-width="6" stroke-miterlimit="10" d="M-2157.771-3034.442"/>
		<path fill="none" stroke="#FFFFFF" stroke-width="6" stroke-miterlimit="10" d="M-2040.663-3032.958
			c0,1.906-27.552,7.347-61.538,7.347c-33.987,0-61.538-5.439-61.538-7.347"/>
		
			<line fill="none" stroke="#FFFFFF" stroke-width="6" stroke-miterlimit="10" x1="-2163.739" y1="-3032.958" x2="-2179.244" y2="-3270.815"/>
		
			<line fill="none" stroke="#FFFFFF" stroke-width="6" stroke-miterlimit="10" x1="-2040.663" y1="-3032.958" x2="-2018.848" y2="-3270.815"/>
		<path fill="none" stroke="#FFFFFF" stroke-width="10" stroke-miterlimit="10" d="M-2223.807-3347.381
			c0,0,49.627,16.739,59.156,20.213c9.529,3.474,6.776,3.896,31.073,79.513"/>
	</g>
	<path fill="none" stroke="#FFFFFF" stroke-width="5" stroke-miterlimit="10" d="M-2164.804-3242.31"/>
	<path opacity="0.4" fill="#FFFFFF" enable-background="new    " d="M-2170.104-3114.767c9.539,10.358,128.307,12.625,135.804-1.502
		l-5.968,83.479l-58.778,7.179l-65.827-5.452L-2170.104-3114.767z"/>
	<path opacity="0.4" fill="#FFFFFF" enable-background="new    " d="M-2174.046-3189.286c10.093,10.958,135.756,13.355,143.69-1.59
		l-9.911,160.824l-58.779,4.439l-65.826-3.673L-2174.046-3189.286z"/>
</g>
<g>
	<polygon opacity="0.5" fill="#FFFFFF" enable-background="new    " points="-987.729,82.227 -937.48,82.227 -892.491,83.03 
		-861.429,83.934 -857.613,91.229 -883.967,356.961 -1024.093,355.872 -1035.932,155.092 -1040.507,83.681 	"/>
	<g>
		<path opacity="0.8" fill="#EFEFEF" enable-background="new    " d="M-1022.512,352.198c72.104,8.556,136.726-0.53,136.726-0.53
			l25.327-243.073l-178.625,1.362"/>
		<path fill="none" stroke="#FFFFFF" stroke-width="15" stroke-miterlimit="10" d="M-1017.297,351.343"/>
		<path fill="none" stroke="#FFFFFF" stroke-width="15" stroke-miterlimit="10" d="M-883.967,353.032
			c0,2.171-31.369,3.929-70.064,3.929c-38.693,0-70.062-1.758-70.062-3.929"/>
		<polyline fill="none" stroke="#FFFFFF" stroke-width="15" stroke-miterlimit="10" points="-1024.093,353.032 -1041.746,82.227 
			-859.132,82.227 -883.967,353.032 		"/>
		<path fill="#FFFFFF" d="M-992.033,123.72c-5.48-17.05-10.018-31.479-13.666-43.075c-13.353-42.453-17.051-53.631-22.031-55.449
			c-10.64-3.874-66.614-22.76-67.178-22.951l4.85-14.381c2.311,0.781,56.715,19.134,67.525,23.074
			c12.219,4.452,15.133,13.723,31.311,65.15c3.641,11.576,9.72,30.627,15.185,47.632H-992.033z"/>
	</g>
	<path fill="none" stroke="#FFFFFF" stroke-width="5" stroke-miterlimit="10" d="M-1035.932,116.974"/>
	<polygon opacity="0.4" fill="#FFFFFF" enable-background="new    " points="-1030.048,261.663 -875.432,259.954 -882.226,354.997 
		-1024.093,356.961 	"/>
	<polygon opacity="0.4" fill="#FFFFFF" enable-background="new    " points="-1031.569,174.796 -867.975,172.986 -879.258,356.089 
		-1021.125,356.961 	"/>
</g>
<g>
	<rect x="2713.933" y="-3576.542" opacity="0.2" fill="#FFFFFF" enable-background="new    " width="232.189" height="50.926"/>
	<rect x="2713.933" y="-3525.616" opacity="0.5" fill="#FFFFFF" enable-background="new    " width="232.189" height="44.306"/>
	<rect x="2713.933" y="-3485.458" fill="#FFFFFF" width="232.189" height="232.188"/>
</g>
<g>
	<rect x="2574.656" y="-3525.616" opacity="0.2" fill="#FFFFFF" enable-background="new    " width="82.344" height="63.144"/>
	<rect x="2574.656" y="-3462.473" opacity="0.5" fill="#FFFFFF" enable-background="new    " width="82.344" height="15.714"/>
	<rect x="2574.656" y="-3448.23" fill="#FFFFFF" width="82.344" height="82.343"/>
</g>
<g>
	<rect x="3006.312" y="-3390.292" opacity="0.2" fill="#FFFFFF" enable-background="new    " width="82.344" height="63.143"/>
	<rect x="3006.312" y="-3327.149" opacity="0.5" fill="#FFFFFF" enable-background="new    " width="82.344" height="15.715"/>
	<rect x="3006.312" y="-3312.907" fill="#FFFFFF" width="82.344" height="82.344"/>
</g>
<g>
	<g>
		<rect x="160.536" y="-993.897" opacity="0.2" fill="#FFFFFF" enable-background="new    " width="117.215" height="113.708"/>
		<rect x="160.536" y="-880.189" opacity="0.5" fill="#FFFFFF" enable-background="new    " width="117.215" height="22.368"/>
		<rect x="160.536" y="-859.916" fill="#FFFFFF" width="117.215" height="117.213"/>
	</g>
	<g>
		<rect x="-200.977" y="-971.777" opacity="0.2" fill="#FFFFFF" enable-background="new    " width="117.215" height="92.292"/>
		<rect x="-200.977" y="-879.486" opacity="0.5" fill="#FFFFFF" enable-background="new    " width="117.215" height="22.368"/>
		<rect x="-200.977" y="-859.213" fill="#FFFFFF" width="117.215" height="117.214"/>
	</g>
	<g>
		<rect x="-20.22" y="-1070.587" opacity="0.2" fill="#FFFFFF" enable-background="new    " width="117.214" height="67.868"/>
		<rect x="-20.22" y="-1002.719" opacity="0.5" fill="#FFFFFF" enable-background="new    " width="117.214" height="22.367"/>
		<rect x="-20.22" y="-982.446" fill="#FFFFFF" width="117.214" height="117.214"/>
	</g>
</g>
</svg>
